<svg width="136" height="136" viewBox="0 0 136 136" fill="none" xmlns="http://www.w3.org/2000/svg">
<g filter="url(#filter0_d_304_2)">
<circle cx="68" cy="64" r="64" fill="#275670"/>
<path d="M69 70C68.6176 87.1015 67.9551 97.4316 64 117" stroke="black"/>
<path d="M73.6286 53.6686L77.1521 35.0936L80.7405 35.7743L77.2169 54.3493L73.6286 53.6686Z" fill="white"/>
<circle cx="67.5" cy="63.5" r="59.5" fill="black"/>
<g filter="url(#filter1_d_304_2)">
<path d="M124.5 64C124.5 95.4802 98.9802 121 67.5 121C36.0198 121 10.5 95.4802 10.5 64C10.5 32.5198 36.0198 7 67.5 7C98.9802 7 124.5 32.5198 124.5 64Z" fill="#F8A033"/>
</g>
<g filter="url(#filter2_i_304_2)">
<path d="M124.5 60.0692C124.734 78.9692 105.557 118.66 69 114.113C38.6243 114.113 14 90.1599 14 60.6126C19.0083 28.2991 45.922 6.03406 69 7.11261C107.332 8.0265 124.266 41.1692 124.5 60.0692Z" fill="#FF9A1D"/>
</g>
<path d="M124.5 65.5C80.0367 77.3316 56.3512 77.0982 11 65.5C8.37781 91.8745 27.149 119.199 66.5 122C92.0014 121.241 117.751 111.147 124.5 65.5Z" fill="#333333" stroke="black"/>
<circle cx="91.5" cy="41.5" r="20" fill="#FCEDC5" stroke="black"/>
<circle cx="43.5" cy="41.5" r="20" fill="#FCEDC5" stroke="black"/>
<path d="M86 73C85.6176 90.1015 84.9551 100.432 81 120" stroke="black"/>
<path d="M101.621 96.7574C102.261 100.898 102.127 106.565 101 110C94.1524 116.581 89.9122 118.777 81.5 119.5C86.2453 92.0649 84.8671 89.4834 86 73.5C95.5584 71.7353 100.782 70.8936 110 69.5C111.858 68.8077 112.891 79.7783 112.992 80.9067C112.9 79.8463 112.114 70.0767 114 68.5L124.5 65.5C122.696 86.0963 117.44 92.9975 106.5 105.5C104.07 106.472 102.693 101.447 101.621 96.7574Z" fill="#EDE1B9" stroke="black"/>
<path d="M66.7991 121C51.3096 119.473 48.22 107.549 49 73.5106C63.4007 75.6658 71.589 74.4345 85.9914 73.5106C85.3789 108.459 80.1153 120.643 66.7991 121Z" fill="#EDE1B9"/>
<path d="M86 73C85.9973 73.1708 85.9914 73.5106 85.9914 73.5106M85.9914 73.5106C85.3789 108.459 80.1153 120.643 66.7991 121C51.3096 119.473 48.22 107.549 49 73.5106C63.4007 75.6658 71.589 74.4345 85.9914 73.5106Z" stroke="black"/>
<path d="M34.3888 96.4899C26.6279 95.7824 40.7207 112.178 56.0001 120C25.2052 113.022 10.6317 93.079 10.0001 65C9.9936 64.9946 10.336 65.1675 10.6219 65.3114C15.7506 67.2906 47.1602 72.8309 48.3641 72.9988C48.3726 72.9969 48.3815 72.9971 48.3907 72.9995C48.4088 73.004 48.3995 73.0037 48.3641 72.9988C47.7562 73.1312 49.082 83.8402 48.3907 83.4992C47.6897 83.1536 33.9969 82.059 34.3888 82.5C41.8089 83.7342 49.2592 86.0091 48.3907 85.4992C48.9592 85.3884 49.5001 96.9995 49.5001 96.9995C49.5001 96.9995 42.1498 97.1974 34.3888 96.4899Z" fill="#EDE1B9"/>
<path d="M11.0001 65.4995C11.0091 65.5085 9.98893 64.9907 10.0001 65M10.0001 65C11.9919 66.6628 49.0625 73.1682 48.3907 72.9995C47.7189 72.8307 49.0917 83.8449 48.3907 83.4992C47.6897 83.1536 33.9969 82.059 34.3888 82.5C41.8089 83.7342 49.2592 86.0091 48.3907 85.4992C48.9592 85.3884 49.5001 96.9995 49.5001 96.9995C49.5001 96.9995 42.1498 97.1974 34.3888 96.4899C26.6279 95.7824 40.7207 112.178 56.0001 120C25.2052 113.022 10.6317 93.079 10.0001 65Z" stroke="black"/>
<path d="M67.5 83.5C67.5345 78.2114 67.0044 75.856 63.5 74.5H71C68.1134 76.4601 67.6208 78.7108 67.5 83.5Z" fill="#333333"/>
<path d="M67.5 83.5C67.5345 78.2114 67.0044 75.856 63.5 74.5H71C68.1134 76.4601 67.6208 78.7108 67.5 83.5ZM67.5 83.5V87" stroke="black"/>
</g>
<defs>
<filter id="filter0_d_304_2" x="0" y="0" width="136" height="136" filterUnits="userSpaceOnUse" color-interpolation-filters="sRGB">
<feFlood flood-opacity="0" result="BackgroundImageFix"/>
<feColorMatrix in="SourceAlpha" type="matrix" values="0 0 0 0 0 0 0 0 0 0 0 0 0 0 0 0 0 0 127 0" result="hardAlpha"/>
<feOffset dy="4"/>
<feGaussianBlur stdDeviation="2"/>
<feComposite in2="hardAlpha" operator="out"/>
<feColorMatrix type="matrix" values="0 0 0 0 0 0 0 0 0 0 0 0 0 0 0 0 0 0 0.25 0"/>
<feBlend mode="normal" in2="BackgroundImageFix" result="effect1_dropShadow_304_2"/>
<feBlend mode="normal" in="SourceGraphic" in2="effect1_dropShadow_304_2" result="shape"/>
</filter>
<filter id="filter1_d_304_2" x="10.5" y="7" width="114" height="115" filterUnits="userSpaceOnUse" color-interpolation-filters="sRGB">
<feFlood flood-opacity="0" result="BackgroundImageFix"/>
<feColorMatrix in="SourceAlpha" type="matrix" values="0 0 0 0 0 0 0 0 0 0 0 0 0 0 0 0 0 0 127 0" result="hardAlpha"/>
<feOffset dy="1"/>
<feComposite in2="hardAlpha" operator="out"/>
<feColorMatrix type="matrix" values="0 0 0 0 0 0 0 0 0 0 0 0 0 0 0 0 0 0 0.25 0"/>
<feBlend mode="normal" in2="BackgroundImageFix" result="effect1_dropShadow_304_2"/>
<feBlend mode="normal" in="SourceGraphic" in2="effect1_dropShadow_304_2" result="shape"/>
</filter>
<filter id="filter2_i_304_2" x="14" y="7.07507" width="110.502" height="111.398" filterUnits="userSpaceOnUse" color-interpolation-filters="sRGB">
<feFlood flood-opacity="0" result="BackgroundImageFix"/>
<feBlend mode="normal" in="SourceGraphic" in2="BackgroundImageFix" result="shape"/>
<feColorMatrix in="SourceAlpha" type="matrix" values="0 0 0 0 0 0 0 0 0 0 0 0 0 0 0 0 0 0 127 0" result="hardAlpha"/>
<feOffset dy="4"/>
<feGaussianBlur stdDeviation="2"/>
<feComposite in2="hardAlpha" operator="arithmetic" k2="-1" k3="1"/>
<feColorMatrix type="matrix" values="0 0 0 0 1 0 0 0 0 0.603922 0 0 0 0 0.113725 0 0 0 1 0"/>
<feBlend mode="normal" in2="shape" result="effect1_innerShadow_304_2"/>
</filter>
</defs>
</svg>
