<svg width="128" height="128" viewBox="0 0 128 128" fill="none" xmlns="http://www.w3.org/2000/svg">
<circle cx="64" cy="64" r="64" fill="#275670"/>
<path d="M65 70C64.6176 87.1015 63.9551 97.4316 60 117" stroke="black"/>
<path d="M69.6287 53.6686L73.1522 35.0936L76.7406 35.7743L73.217 54.3493L69.6287 53.6686Z" fill="white"/>
<circle cx="63.5" cy="63.5" r="59.5" fill="black"/>
<g filter="url(#filter0_d_222_2)">
<path d="M120.5 64C120.5 95.4802 94.9802 121 63.5 121C32.0198 121 6.5 95.4802 6.5 64C6.5 32.5198 32.0198 7 63.5 7C94.9802 7 120.5 32.5198 120.5 64Z" fill="#F8A033"/>
</g>
<g filter="url(#filter1_i_222_2)">
<path d="M120.5 60.0692C120.734 78.9692 101.557 118.66 65 114.113C34.6243 114.113 10 90.1599 10 60.6126C15.0083 28.2991 41.922 6.03406 65 7.11261C103.332 8.0265 120.266 41.1692 120.5 60.0692Z" fill="#FF9A1D"/>
</g>
<path d="M120.5 65.5C76.0367 77.3316 52.3512 77.0982 7.00003 65.5C4.37781 91.8745 23.149 119.199 62.5 122C88.0014 121.241 113.751 111.147 120.5 65.5Z" fill="#333333" stroke="black"/>
<circle cx="87.5" cy="41.5" r="20" fill="#FCEDC5" stroke="black"/>
<circle cx="39.5" cy="41.5" r="20" fill="#FCEDC5" stroke="black"/>
<path d="M82 73C81.6176 90.1015 80.9551 100.432 77 120" stroke="black"/>
<path d="M23.7893 48.0727L21.6594 35.3593L25.5312 34.7106L27.8988 42.2824L27.6621 34.3536L31.5701 33.6989L33.7 46.4123L31.3741 46.802L29.8395 37.6426L29.9149 47.0465L27.6323 47.4289L24.5519 38.5284L26.0864 47.6879L23.7893 48.0727Z" fill="#333333"/>
<path d="M88.357 47.5278L89.2723 37.1531L87.7475 37.0186L87.9651 34.5526L93.5829 35.0482L93.3653 37.5142L91.8405 37.3797L90.9252 47.7544L88.357 47.5278Z" fill="#333333"/>
<path d="M48.7861 46.8542L51.5687 34.2675L56.6034 35.3805L56.0658 37.8121L53.5914 37.265L53.0491 39.718L55.4234 40.2429L54.9001 42.6101L52.5258 42.0852L51.8886 44.9672L54.5276 45.5506L53.9853 48.0036L48.7861 46.8542Z" fill="#333333"/>
<path d="M34.108 46.2815L34.9903 33.361L39.3612 33.2381L40.9462 46.0892L38.5082 46.1578L38.2667 44.0837L36.7145 44.1273L36.6119 46.2111L34.108 46.2815ZM36.8397 42.0649L38.0111 42.0319L37.2631 35.4952L37.146 35.4985L36.8397 42.0649Z" fill="#333333"/>
<path d="M41.5524 46.0867L42.8982 33.2665L45.4331 33.5326L44.894 38.668L46.6277 33.658L49.2063 33.9287L47.155 39.6491L48.1592 46.7802L45.5005 46.5011L44.7534 40.1482L44.1019 46.3543L41.5524 46.0867Z" fill="#333333"/>
<path d="M97.6208 96.7574C98.2608 100.898 98.1265 106.565 97 110C90.1524 116.581 85.9122 118.777 77.5 119.5C82.2453 92.0649 80.8671 89.4834 82 73.5C91.5584 71.7353 96.7822 70.8936 106 69.5C107.858 68.8077 108.891 79.7783 108.992 80.9067C108.9 79.8463 108.114 70.0767 110 68.5L120.5 65.5C118.696 86.0963 113.44 92.9975 102.5 105.5C100.07 106.472 98.6934 101.447 97.6208 96.7574Z" fill="#EDE1B9" stroke="black"/>
<path d="M62.7991 121C47.3096 119.473 44.22 107.549 45 73.5106C59.4007 75.6658 67.589 74.4345 81.9914 73.5106C81.3789 108.459 76.1153 120.643 62.7991 121Z" fill="#EDE1B9"/>
<path d="M82 73C81.9973 73.1708 81.9914 73.5106 81.9914 73.5106M81.9914 73.5106C81.3789 108.459 76.1153 120.643 62.7991 121C47.3096 119.473 44.22 107.549 45 73.5106C59.4007 75.6658 67.589 74.4345 81.9914 73.5106Z" stroke="black"/>
<path d="M30.3887 96.4899C22.6278 95.7824 36.7206 112.178 52 120C21.205 113.022 6.63162 93.079 5.99997 65C5.99348 64.9946 6.33591 65.1675 6.62178 65.3114C11.7505 67.2906 43.1601 72.8309 44.364 72.9988C44.3725 72.9969 44.3813 72.9971 44.3906 72.9995C44.4087 73.004 44.3994 73.0037 44.364 72.9988C43.7561 73.1312 45.0819 83.8402 44.3906 83.4992C43.6896 83.1536 29.9968 82.059 30.3887 82.5C37.8088 83.7342 45.259 86.0091 44.3906 85.4992C44.9591 85.3884 45.5 96.9995 45.5 96.9995C45.5 96.9995 38.1496 97.1974 30.3887 96.4899Z" fill="#EDE1B9"/>
<path d="M6.99995 65.4995C7.009 65.5085 5.98881 64.9907 5.99997 65M5.99997 65C7.99179 66.6628 45.0624 73.1682 44.3906 72.9995C43.7188 72.8307 45.0915 83.8449 44.3906 83.4992C43.6896 83.1536 29.9968 82.059 30.3887 82.5C37.8088 83.7342 45.259 86.0091 44.3906 85.4992C44.9591 85.3884 45.5 96.9995 45.5 96.9995C45.5 96.9995 38.1496 97.1974 30.3887 96.4899C22.6278 95.7824 36.7206 112.178 52 120C21.205 113.022 6.63162 93.079 5.99997 65Z" stroke="black"/>
<path d="M63.5 83.5C63.5345 78.2114 63.0044 75.856 59.5 74.5H67C64.1134 76.4601 63.6208 78.7108 63.5 83.5Z" fill="#333333"/>
<path d="M63.5 83.5C63.5345 78.2114 63.0044 75.856 59.5 74.5H67C64.1134 76.4601 63.6208 78.7108 63.5 83.5ZM63.5 83.5V87" stroke="black"/>
<path d="M83.9167 47.4692L83.5292 34.5844L86.0183 34.5095L86.4058 47.3943L83.9167 47.4692Z" fill="#333333"/>
<circle cx="64" cy="64" r="64" fill="#275670"/>
<path d="M65 70C64.6176 87.1015 63.9551 97.4316 60 117" stroke="black"/>
<path d="M69.6287 53.6686L73.1522 35.0936L76.7406 35.7743L73.217 54.3493L69.6287 53.6686Z" fill="white"/>
<circle cx="63.5" cy="63.5" r="59.5" fill="black"/>
<g filter="url(#filter2_d_222_2)">
<path d="M120.5 64C120.5 95.4802 94.9802 121 63.5 121C32.0198 121 6.5 95.4802 6.5 64C6.5 32.5198 32.0198 7 63.5 7C94.9802 7 120.5 32.5198 120.5 64Z" fill="#F8A033"/>
</g>
<g filter="url(#filter3_i_222_2)">
<path d="M120.5 60.0692C120.734 78.9692 101.557 118.66 65 114.113C34.6243 114.113 10 90.1599 10 60.6126C15.0083 28.2991 41.922 6.03406 65 7.11261C103.332 8.0265 120.266 41.1692 120.5 60.0692Z" fill="#FF9A1D"/>
</g>
<path d="M120.5 65.5C76.0367 77.3316 52.3512 77.0982 7.00003 65.5C4.37781 91.8745 23.149 119.199 62.5 122C88.0014 121.241 113.751 111.147 120.5 65.5Z" fill="#333333" stroke="black"/>
<circle cx="87.5" cy="41.5" r="20" fill="#FCEDC5" stroke="black"/>
<circle cx="39.5" cy="41.5" r="20" fill="#FCEDC5" stroke="black"/>
<path d="M82 73C81.6176 90.1015 80.9551 100.432 77 120" stroke="black"/>
<path d="M23.7893 48.0727L21.6594 35.3593L25.5312 34.7106L27.8988 42.2824L27.6621 34.3536L31.5701 33.6989L33.7 46.4123L31.3741 46.802L29.8395 37.6426L29.9149 47.0465L27.6323 47.4289L24.5519 38.5284L26.0864 47.6879L23.7893 48.0727Z" fill="#333333"/>
<path d="M88.357 47.5278L89.2723 37.1531L87.7475 37.0186L87.9651 34.5526L93.5829 35.0482L93.3653 37.5142L91.8405 37.3797L90.9252 47.7544L88.357 47.5278Z" fill="#333333"/>
<path d="M48.7861 46.8542L51.5687 34.2675L56.6034 35.3805L56.0658 37.8121L53.5914 37.265L53.0491 39.718L55.4234 40.2429L54.9001 42.6101L52.5258 42.0852L51.8886 44.9672L54.5276 45.5506L53.9853 48.0036L48.7861 46.8542Z" fill="#333333"/>
<path d="M34.108 46.2815L34.9903 33.361L39.3612 33.2381L40.9462 46.0892L38.5082 46.1578L38.2667 44.0837L36.7145 44.1273L36.6119 46.2111L34.108 46.2815ZM36.8397 42.0649L38.0111 42.0319L37.2631 35.4952L37.146 35.4985L36.8397 42.0649Z" fill="#333333"/>
<path d="M41.5524 46.0867L42.8982 33.2665L45.4331 33.5326L44.894 38.668L46.6277 33.658L49.2063 33.9287L47.155 39.6491L48.1592 46.7802L45.5005 46.5011L44.7534 40.1482L44.1019 46.3543L41.5524 46.0867Z" fill="#333333"/>
<path d="M97.6208 96.7574C98.2608 100.898 98.1265 106.565 97 110C90.1524 116.581 85.9122 118.777 77.5 119.5C82.2453 92.0649 80.8671 89.4834 82 73.5C91.5584 71.7353 96.7822 70.8936 106 69.5C107.858 68.8077 108.891 79.7783 108.992 80.9067C108.9 79.8463 108.114 70.0767 110 68.5L120.5 65.5C118.696 86.0963 113.44 92.9975 102.5 105.5C100.07 106.472 98.6934 101.447 97.6208 96.7574Z" fill="#EDE1B9" stroke="black"/>
<path d="M62.7991 121C47.3096 119.473 44.22 107.549 45 73.5106C59.4007 75.6658 67.589 74.4345 81.9914 73.5106C81.3789 108.459 76.1153 120.643 62.7991 121Z" fill="#EDE1B9"/>
<path d="M82 73C81.9973 73.1708 81.9914 73.5106 81.9914 73.5106M81.9914 73.5106C81.3789 108.459 76.1153 120.643 62.7991 121C47.3096 119.473 44.22 107.549 45 73.5106C59.4007 75.6658 67.589 74.4345 81.9914 73.5106Z" stroke="black"/>
<path d="M30.3887 96.4899C22.6278 95.7824 36.7206 112.178 52 120C21.205 113.022 6.63162 93.079 5.99997 65C5.99348 64.9946 6.33591 65.1675 6.62178 65.3114C11.7505 67.2906 43.1601 72.8309 44.364 72.9988C44.3725 72.9969 44.3813 72.9971 44.3906 72.9995C44.4087 73.004 44.3994 73.0037 44.364 72.9988C43.7561 73.1312 45.0819 83.8402 44.3906 83.4992C43.6896 83.1536 29.9968 82.059 30.3887 82.5C37.8088 83.7342 45.259 86.0091 44.3906 85.4992C44.9591 85.3884 45.5 96.9995 45.5 96.9995C45.5 96.9995 38.1496 97.1974 30.3887 96.4899Z" fill="#EDE1B9"/>
<path d="M6.99995 65.4995C7.009 65.5085 5.98881 64.9907 5.99997 65M5.99997 65C7.99179 66.6628 45.0624 73.1682 44.3906 72.9995C43.7188 72.8307 45.0915 83.8449 44.3906 83.4992C43.6896 83.1536 29.9968 82.059 30.3887 82.5C37.8088 83.7342 45.259 86.0091 44.3906 85.4992C44.9591 85.3884 45.5 96.9995 45.5 96.9995C45.5 96.9995 38.1496 97.1974 30.3887 96.4899C22.6278 95.7824 36.7206 112.178 52 120C21.205 113.022 6.63162 93.079 5.99997 65Z" stroke="black"/>
<path d="M63.5 83.5C63.5345 78.2114 63.0044 75.856 59.5 74.5H67C64.1134 76.4601 63.6208 78.7108 63.5 83.5Z" fill="#333333"/>
<path d="M63.5 83.5C63.5345 78.2114 63.0044 75.856 59.5 74.5H67C64.1134 76.4601 63.6208 78.7108 63.5 83.5ZM63.5 83.5V87" stroke="black"/>
<path d="M83.9167 47.4692L83.5292 34.5844L86.0183 34.5095L86.4058 47.3943L83.9167 47.4692Z" fill="#333333"/>
<circle cx="64" cy="64" r="64" fill="#275670"/>
<path d="M65 70C64.6176 87.1015 63.9551 97.4316 60 117" stroke="black"/>
<path d="M69.6287 53.6686L73.1522 35.0936L76.7406 35.7743L73.217 54.3493L69.6287 53.6686Z" fill="white"/>
<circle cx="63.5" cy="63.5" r="59.5" fill="black"/>
<g filter="url(#filter4_d_222_2)">
<path d="M120.5 64C120.5 95.4802 94.9802 121 63.5 121C32.0198 121 6.5 95.4802 6.5 64C6.5 32.5198 32.0198 7 63.5 7C94.9802 7 120.5 32.5198 120.5 64Z" fill="#F8A033"/>
</g>
<g filter="url(#filter5_i_222_2)">
<path d="M120.5 60.0692C120.734 78.9692 101.557 118.66 65 114.113C34.6243 114.113 10 90.1599 10 60.6126C15.0083 28.2991 41.922 6.03406 65 7.11261C103.332 8.0265 120.266 41.1692 120.5 60.0692Z" fill="#FF9A1D"/>
</g>
<path d="M120.5 65.5C76.0367 77.3316 52.3512 77.0982 7.00003 65.5C4.37781 91.8745 23.149 119.199 62.5 122C88.0014 121.241 113.751 111.147 120.5 65.5Z" fill="#333333" stroke="black"/>
<circle cx="87.5" cy="41.5" r="20" fill="#FCEDC5" stroke="black"/>
<circle cx="39.5" cy="41.5" r="20" fill="#FCEDC5" stroke="black"/>
<path d="M82 73C81.6176 90.1015 80.9551 100.432 77 120" stroke="black"/>
<path d="M23.7893 48.0727L21.6594 35.3593L25.5312 34.7106L27.8988 42.2824L27.6621 34.3536L31.5701 33.6989L33.7 46.4123L31.3741 46.802L29.8395 37.6426L29.9149 47.0465L27.6323 47.4289L24.5519 38.5284L26.0864 47.6879L23.7893 48.0727Z" fill="#333333"/>
<path d="M88.357 47.5278L89.2723 37.1531L87.7475 37.0186L87.9651 34.5526L93.5829 35.0482L93.3653 37.5142L91.8405 37.3797L90.9252 47.7544L88.357 47.5278Z" fill="#333333"/>
<path d="M48.7861 46.8542L51.5687 34.2675L56.6034 35.3805L56.0658 37.8121L53.5914 37.265L53.0491 39.718L55.4234 40.2429L54.9001 42.6101L52.5258 42.0852L51.8886 44.9672L54.5276 45.5506L53.9853 48.0036L48.7861 46.8542Z" fill="#333333"/>
<path d="M34.108 46.2815L34.9903 33.361L39.3612 33.2381L40.9462 46.0892L38.5082 46.1578L38.2667 44.0837L36.7145 44.1273L36.6119 46.2111L34.108 46.2815ZM36.8397 42.0649L38.0111 42.0319L37.2631 35.4952L37.146 35.4985L36.8397 42.0649Z" fill="#333333"/>
<path d="M41.5524 46.0867L42.8982 33.2665L45.4331 33.5326L44.894 38.668L46.6277 33.658L49.2063 33.9287L47.155 39.6491L48.1592 46.7802L45.5005 46.5011L44.7534 40.1482L44.1019 46.3543L41.5524 46.0867Z" fill="#333333"/>
<path d="M97.6208 96.7574C98.2608 100.898 98.1265 106.565 97 110C90.1524 116.581 85.9122 118.777 77.5 119.5C82.2453 92.0649 80.8671 89.4834 82 73.5C91.5584 71.7353 96.7822 70.8936 106 69.5C107.858 68.8077 108.891 79.7783 108.992 80.9067C108.9 79.8463 108.114 70.0767 110 68.5L120.5 65.5C118.696 86.0963 113.44 92.9975 102.5 105.5C100.07 106.472 98.6934 101.447 97.6208 96.7574Z" fill="#EDE1B9" stroke="black"/>
<path d="M62.7991 121C47.3096 119.473 44.22 107.549 45 73.5106C59.4007 75.6658 67.589 74.4345 81.9914 73.5106C81.3789 108.459 76.1153 120.643 62.7991 121Z" fill="#EDE1B9"/>
<path d="M82 73C81.9973 73.1708 81.9914 73.5106 81.9914 73.5106M81.9914 73.5106C81.3789 108.459 76.1153 120.643 62.7991 121C47.3096 119.473 44.22 107.549 45 73.5106C59.4007 75.6658 67.589 74.4345 81.9914 73.5106Z" stroke="black"/>
<path d="M30.3887 96.4899C22.6278 95.7824 36.7206 112.178 52 120C21.205 113.022 6.63162 93.079 5.99997 65C5.99348 64.9946 6.33591 65.1675 6.62178 65.3114C11.7505 67.2906 43.1601 72.8309 44.364 72.9988C44.3725 72.9969 44.3813 72.9971 44.3906 72.9995C44.4087 73.004 44.3994 73.0037 44.364 72.9988C43.7561 73.1312 45.0819 83.8402 44.3906 83.4992C43.6896 83.1536 29.9968 82.059 30.3887 82.5C37.8088 83.7342 45.259 86.0091 44.3906 85.4992C44.9591 85.3884 45.5 96.9995 45.5 96.9995C45.5 96.9995 38.1496 97.1974 30.3887 96.4899Z" fill="#EDE1B9"/>
<path d="M6.99995 65.4995C7.009 65.5085 5.98881 64.9907 5.99997 65M5.99997 65C7.99179 66.6628 45.0624 73.1682 44.3906 72.9995C43.7188 72.8307 45.0915 83.8449 44.3906 83.4992C43.6896 83.1536 29.9968 82.059 30.3887 82.5C37.8088 83.7342 45.259 86.0091 44.3906 85.4992C44.9591 85.3884 45.5 96.9995 45.5 96.9995C45.5 96.9995 38.1496 97.1974 30.3887 96.4899C22.6278 95.7824 36.7206 112.178 52 120C21.205 113.022 6.63162 93.079 5.99997 65Z" stroke="black"/>
<path d="M63.5 83.5C63.5345 78.2114 63.0044 75.856 59.5 74.5H67C64.1134 76.4601 63.6208 78.7108 63.5 83.5Z" fill="#333333"/>
<path d="M63.5 83.5C63.5345 78.2114 63.0044 75.856 59.5 74.5H67C64.1134 76.4601 63.6208 78.7108 63.5 83.5ZM63.5 83.5V87" stroke="black"/>
<path d="M83.9167 47.4692L83.5292 34.5844L86.0183 34.5095L86.4058 47.3943L83.9167 47.4692Z" fill="#333333"/>
<circle cx="64" cy="64" r="64" fill="#275670"/>
<path d="M65 70C64.6176 87.1015 63.9551 97.4316 60 117" stroke="black"/>
<path d="M69.6287 53.6686L73.1522 35.0936L76.7406 35.7743L73.217 54.3493L69.6287 53.6686Z" fill="white"/>
<circle cx="63.5" cy="63.5" r="59.5" fill="black"/>
<g filter="url(#filter6_d_222_2)">
<path d="M120.5 64C120.5 95.4802 94.9802 121 63.5 121C32.0198 121 6.5 95.4802 6.5 64C6.5 32.5198 32.0198 7 63.5 7C94.9802 7 120.5 32.5198 120.5 64Z" fill="#F8A033"/>
</g>
<g filter="url(#filter7_i_222_2)">
<path d="M120.5 60.0692C120.734 78.9692 101.557 118.66 65 114.113C34.6243 114.113 10 90.1599 10 60.6126C15.0083 28.2991 41.922 6.03406 65 7.11261C103.332 8.0265 120.266 41.1692 120.5 60.0692Z" fill="#FF9A1D"/>
</g>
<path d="M120.5 65.5C76.0367 77.3316 52.3512 77.0982 7.00003 65.5C4.37781 91.8745 23.149 119.199 62.5 122C88.0014 121.241 113.751 111.147 120.5 65.5Z" fill="#333333" stroke="black"/>
<circle cx="87.5" cy="41.5" r="20" fill="#FCEDC5" stroke="black"/>
<circle cx="39.5" cy="41.5" r="20" fill="#FCEDC5" stroke="black"/>
<path d="M82 73C81.6176 90.1015 80.9551 100.432 77 120" stroke="black"/>
<path d="M23.7893 48.0727L21.6594 35.3593L25.5312 34.7106L27.8988 42.2824L27.6621 34.3536L31.5701 33.6989L33.7 46.4123L31.3741 46.802L29.8395 37.6426L29.9149 47.0465L27.6323 47.4289L24.5519 38.5284L26.0864 47.6879L23.7893 48.0727Z" fill="#333333"/>
<path d="M88.357 47.5278L89.2723 37.1531L87.7475 37.0186L87.9651 34.5526L93.5829 35.0482L93.3653 37.5142L91.8405 37.3797L90.9252 47.7544L88.357 47.5278Z" fill="#333333"/>
<path d="M48.7861 46.8542L51.5687 34.2675L56.6034 35.3805L56.0658 37.8121L53.5914 37.265L53.0491 39.718L55.4234 40.2429L54.9001 42.6101L52.5258 42.0852L51.8886 44.9672L54.5276 45.5506L53.9853 48.0036L48.7861 46.8542Z" fill="#333333"/>
<path d="M34.108 46.2815L34.9903 33.361L39.3612 33.2381L40.9462 46.0892L38.5082 46.1578L38.2667 44.0837L36.7145 44.1273L36.6119 46.2111L34.108 46.2815ZM36.8397 42.0649L38.0111 42.0319L37.2631 35.4952L37.146 35.4985L36.8397 42.0649Z" fill="#333333"/>
<path d="M41.5524 46.0867L42.8982 33.2665L45.4331 33.5326L44.894 38.668L46.6277 33.658L49.2063 33.9287L47.155 39.6491L48.1592 46.7802L45.5005 46.5011L44.7534 40.1482L44.1019 46.3543L41.5524 46.0867Z" fill="#333333"/>
<path d="M97.6208 96.7574C98.2608 100.898 98.1265 106.565 97 110C90.1524 116.581 85.9122 118.777 77.5 119.5C82.2453 92.0649 80.8671 89.4834 82 73.5C91.5584 71.7353 96.7822 70.8936 106 69.5C107.858 68.8077 108.891 79.7783 108.992 80.9067C108.9 79.8463 108.114 70.0767 110 68.5L120.5 65.5C118.696 86.0963 113.44 92.9975 102.5 105.5C100.07 106.472 98.6934 101.447 97.6208 96.7574Z" fill="#EDE1B9" stroke="black"/>
<path d="M62.7991 121C47.3096 119.473 44.22 107.549 45 73.5106C59.4007 75.6658 67.589 74.4345 81.9914 73.5106C81.3789 108.459 76.1153 120.643 62.7991 121Z" fill="#EDE1B9"/>
<path d="M82 73C81.9973 73.1708 81.9914 73.5106 81.9914 73.5106M81.9914 73.5106C81.3789 108.459 76.1153 120.643 62.7991 121C47.3096 119.473 44.22 107.549 45 73.5106C59.4007 75.6658 67.589 74.4345 81.9914 73.5106Z" stroke="black"/>
<path d="M30.3887 96.4899C22.6278 95.7824 36.7206 112.178 52 120C21.205 113.022 6.63162 93.079 5.99997 65C5.99348 64.9946 6.33591 65.1675 6.62178 65.3114C11.7505 67.2906 43.1601 72.8309 44.364 72.9988C44.3725 72.9969 44.3813 72.9971 44.3906 72.9995C44.4087 73.004 44.3994 73.0037 44.364 72.9988C43.7561 73.1312 45.0819 83.8402 44.3906 83.4992C43.6896 83.1536 29.9968 82.059 30.3887 82.5C37.8088 83.7342 45.259 86.0091 44.3906 85.4992C44.9591 85.3884 45.5 96.9995 45.5 96.9995C45.5 96.9995 38.1496 97.1974 30.3887 96.4899Z" fill="#EDE1B9"/>
<path d="M6.99995 65.4995C7.009 65.5085 5.98881 64.9907 5.99997 65M5.99997 65C7.99179 66.6628 45.0624 73.1682 44.3906 72.9995C43.7188 72.8307 45.0915 83.8449 44.3906 83.4992C43.6896 83.1536 29.9968 82.059 30.3887 82.5C37.8088 83.7342 45.259 86.0091 44.3906 85.4992C44.9591 85.3884 45.5 96.9995 45.5 96.9995C45.5 96.9995 38.1496 97.1974 30.3887 96.4899C22.6278 95.7824 36.7206 112.178 52 120C21.205 113.022 6.63162 93.079 5.99997 65Z" stroke="black"/>
<path d="M63.5 83.5C63.5345 78.2114 63.0044 75.856 59.5 74.5H67C64.1134 76.4601 63.6208 78.7108 63.5 83.5Z" fill="#333333"/>
<path d="M63.5 83.5C63.5345 78.2114 63.0044 75.856 59.5 74.5H67C64.1134 76.4601 63.6208 78.7108 63.5 83.5ZM63.5 83.5V87" stroke="black"/>
<path d="M83.9167 47.4692L83.5292 34.5844L86.0183 34.5095L86.4058 47.3943L83.9167 47.4692Z" fill="#333333"/>
<defs>
<filter id="filter0_d_222_2" x="6.5" y="7" width="114" height="115" filterUnits="userSpaceOnUse" color-interpolation-filters="sRGB">
<feFlood flood-opacity="0" result="BackgroundImageFix"/>
<feColorMatrix in="SourceAlpha" type="matrix" values="0 0 0 0 0 0 0 0 0 0 0 0 0 0 0 0 0 0 127 0" result="hardAlpha"/>
<feOffset dy="1"/>
<feComposite in2="hardAlpha" operator="out"/>
<feColorMatrix type="matrix" values="0 0 0 0 0 0 0 0 0 0 0 0 0 0 0 0 0 0 0.25 0"/>
<feBlend mode="normal" in2="BackgroundImageFix" result="effect1_dropShadow_222_2"/>
<feBlend mode="normal" in="SourceGraphic" in2="effect1_dropShadow_222_2" result="shape"/>
</filter>
<filter id="filter1_i_222_2" x="10" y="7.07507" width="110.502" height="111.398" filterUnits="userSpaceOnUse" color-interpolation-filters="sRGB">
<feFlood flood-opacity="0" result="BackgroundImageFix"/>
<feBlend mode="normal" in="SourceGraphic" in2="BackgroundImageFix" result="shape"/>
<feColorMatrix in="SourceAlpha" type="matrix" values="0 0 0 0 0 0 0 0 0 0 0 0 0 0 0 0 0 0 127 0" result="hardAlpha"/>
<feOffset dy="4"/>
<feGaussianBlur stdDeviation="2"/>
<feComposite in2="hardAlpha" operator="arithmetic" k2="-1" k3="1"/>
<feColorMatrix type="matrix" values="0 0 0 0 1 0 0 0 0 0.603922 0 0 0 0 0.113725 0 0 0 1 0"/>
<feBlend mode="normal" in2="shape" result="effect1_innerShadow_222_2"/>
</filter>
<filter id="filter2_d_222_2" x="6.5" y="7" width="114" height="115" filterUnits="userSpaceOnUse" color-interpolation-filters="sRGB">
<feFlood flood-opacity="0" result="BackgroundImageFix"/>
<feColorMatrix in="SourceAlpha" type="matrix" values="0 0 0 0 0 0 0 0 0 0 0 0 0 0 0 0 0 0 127 0" result="hardAlpha"/>
<feOffset dy="1"/>
<feComposite in2="hardAlpha" operator="out"/>
<feColorMatrix type="matrix" values="0 0 0 0 0 0 0 0 0 0 0 0 0 0 0 0 0 0 0.25 0"/>
<feBlend mode="normal" in2="BackgroundImageFix" result="effect1_dropShadow_222_2"/>
<feBlend mode="normal" in="SourceGraphic" in2="effect1_dropShadow_222_2" result="shape"/>
</filter>
<filter id="filter3_i_222_2" x="10" y="7.07507" width="110.502" height="111.398" filterUnits="userSpaceOnUse" color-interpolation-filters="sRGB">
<feFlood flood-opacity="0" result="BackgroundImageFix"/>
<feBlend mode="normal" in="SourceGraphic" in2="BackgroundImageFix" result="shape"/>
<feColorMatrix in="SourceAlpha" type="matrix" values="0 0 0 0 0 0 0 0 0 0 0 0 0 0 0 0 0 0 127 0" result="hardAlpha"/>
<feOffset dy="4"/>
<feGaussianBlur stdDeviation="2"/>
<feComposite in2="hardAlpha" operator="arithmetic" k2="-1" k3="1"/>
<feColorMatrix type="matrix" values="0 0 0 0 1 0 0 0 0 0.603922 0 0 0 0 0.113725 0 0 0 1 0"/>
<feBlend mode="normal" in2="shape" result="effect1_innerShadow_222_2"/>
</filter>
<filter id="filter4_d_222_2" x="6.5" y="7" width="114" height="115" filterUnits="userSpaceOnUse" color-interpolation-filters="sRGB">
<feFlood flood-opacity="0" result="BackgroundImageFix"/>
<feColorMatrix in="SourceAlpha" type="matrix" values="0 0 0 0 0 0 0 0 0 0 0 0 0 0 0 0 0 0 127 0" result="hardAlpha"/>
<feOffset dy="1"/>
<feComposite in2="hardAlpha" operator="out"/>
<feColorMatrix type="matrix" values="0 0 0 0 0 0 0 0 0 0 0 0 0 0 0 0 0 0 0.25 0"/>
<feBlend mode="normal" in2="BackgroundImageFix" result="effect1_dropShadow_222_2"/>
<feBlend mode="normal" in="SourceGraphic" in2="effect1_dropShadow_222_2" result="shape"/>
</filter>
<filter id="filter5_i_222_2" x="10" y="7.07507" width="110.502" height="111.398" filterUnits="userSpaceOnUse" color-interpolation-filters="sRGB">
<feFlood flood-opacity="0" result="BackgroundImageFix"/>
<feBlend mode="normal" in="SourceGraphic" in2="BackgroundImageFix" result="shape"/>
<feColorMatrix in="SourceAlpha" type="matrix" values="0 0 0 0 0 0 0 0 0 0 0 0 0 0 0 0 0 0 127 0" result="hardAlpha"/>
<feOffset dy="4"/>
<feGaussianBlur stdDeviation="2"/>
<feComposite in2="hardAlpha" operator="arithmetic" k2="-1" k3="1"/>
<feColorMatrix type="matrix" values="0 0 0 0 1 0 0 0 0 0.603922 0 0 0 0 0.113725 0 0 0 1 0"/>
<feBlend mode="normal" in2="shape" result="effect1_innerShadow_222_2"/>
</filter>
<filter id="filter6_d_222_2" x="6.5" y="7" width="114" height="115" filterUnits="userSpaceOnUse" color-interpolation-filters="sRGB">
<feFlood flood-opacity="0" result="BackgroundImageFix"/>
<feColorMatrix in="SourceAlpha" type="matrix" values="0 0 0 0 0 0 0 0 0 0 0 0 0 0 0 0 0 0 127 0" result="hardAlpha"/>
<feOffset dy="1"/>
<feComposite in2="hardAlpha" operator="out"/>
<feColorMatrix type="matrix" values="0 0 0 0 0 0 0 0 0 0 0 0 0 0 0 0 0 0 0.25 0"/>
<feBlend mode="normal" in2="BackgroundImageFix" result="effect1_dropShadow_222_2"/>
<feBlend mode="normal" in="SourceGraphic" in2="effect1_dropShadow_222_2" result="shape"/>
</filter>
<filter id="filter7_i_222_2" x="10" y="7.07507" width="110.502" height="111.398" filterUnits="userSpaceOnUse" color-interpolation-filters="sRGB">
<feFlood flood-opacity="0" result="BackgroundImageFix"/>
<feBlend mode="normal" in="SourceGraphic" in2="BackgroundImageFix" result="shape"/>
<feColorMatrix in="SourceAlpha" type="matrix" values="0 0 0 0 0 0 0 0 0 0 0 0 0 0 0 0 0 0 127 0" result="hardAlpha"/>
<feOffset dy="4"/>
<feGaussianBlur stdDeviation="2"/>
<feComposite in2="hardAlpha" operator="arithmetic" k2="-1" k3="1"/>
<feColorMatrix type="matrix" values="0 0 0 0 1 0 0 0 0 0.603922 0 0 0 0 0.113725 0 0 0 1 0"/>
<feBlend mode="normal" in2="shape" result="effect1_innerShadow_222_2"/>
</filter>
</defs>
</svg>
